<?xml version="1.0" encoding="UTF-8"?>
<svg version="1.1" xmlns="http://www.w3.org/2000/svg" width="512" height="512">
<path d="M0 0 C0.78158478 0.00054382 1.56316956 0.00108765 2.36843872 0.00164795 C44.5851669 0.13577661 83.95368777 14.0446908 117.625 39.375 C118.43839844 39.96410156 119.25179688 40.55320313 120.08984375 41.16015625 C123.95826726 43.97682961 127.25129119 46.96300797 130.625 50.375 C131.8000784 51.50729272 132.97732431 52.63733857 134.15625 53.765625 C148.91667227 68.03477755 160.1947148 83.43440028 170.390625 101.22460938 C171.16630209 102.57590759 171.95142351 103.92187273 172.75 105.25976562 C176.68286871 111.90111939 179.09180283 119.12098662 181.625 126.375 C181.88603516 127.11862793 182.14707031 127.86225586 182.41601562 128.62841797 C186.69498689 140.99018545 189.6396695 153.44476064 191.625 166.375 C191.7295752 167.055625 191.83415039 167.73625 191.94189453 168.4375 C192.93358864 175.95947319 192.86870973 183.55077151 192.875 191.125 C192.87567474 191.85665375 192.87634949 192.5883075 192.87704468 193.34213257 C192.85919786 205.56687095 192.13416927 217.37749895 189.625 229.375 C189.45339355 230.20209473 189.28178711 231.02918945 189.10498047 231.88134766 C185.12775144 250.40265281 178.61287735 267.72226779 169.625 284.375 C169.29886719 284.98714355 168.97273438 285.59928711 168.63671875 286.22998047 C164.01485385 294.84994264 158.74807443 302.74363154 152.625 310.375 C151.80386719 311.40109375 150.98273438 312.4271875 150.13671875 313.484375 C141.76140155 323.74516071 132.50326542 333.5839482 122.3125 342.0625 C109.0309922 353.38491337 101.2953295 369.034341 93.625 384.375 C69.865 384.375 46.105 384.375 21.625 384.375 C21.625 333.555 21.625 282.735 21.625 230.375 C26.905 227.735 32.185 225.095 37.625 222.375 C52.60880028 210.41677478 61.3847645 195.47357334 63.625 176.375 C64.02093935 170.23794015 63.54304438 164.89479723 60.625 159.375 C56.92894955 155.18792835 52.53258436 151.73221751 46.890625 151.0390625 C40.24502379 150.95297958 35.067825 151.32574855 29.625 155.375 C26.66566528 158.41221195 24.76607431 161.28615041 23.625 165.375 C23.7075 166.550625 23.79 167.72625 23.875 168.9375 C24.00388958 175.11248282 21.06185688 180.40445444 17.625 185.375 C11.42942096 190.86488494 6.06308029 192.85404635 -2.125 192.78515625 C-8.73409254 191.95107606 -13.57435021 188.49884334 -17.8125 183.5 C-22.40948276 174.30603448 -22.40948276 174.30603448 -22.3125 168.875 C-22.41530387 163.11798307 -24.72545629 158.98224771 -28.8125 155 C-35.11014448 151.00637179 -41.04301486 150.44304858 -48.375 151.375 C-53.49807973 153.37788416 -57.4751482 156.69062402 -60.375 161.375 C-65.08102725 173.84597221 -61.12387446 187.75251907 -55.875 199.5 C-47.58893034 215.38163352 -36.5367056 222.2941472 -20.375 230.375 C-20.375 281.195 -20.375 332.015 -20.375 384.375 C-44.795 384.375 -69.215 384.375 -94.375 384.375 C-97.675 378.105 -100.975 371.835 -104.375 365.375 C-113.14722532 351.17234948 -123.85268409 339.82103815 -135.70504761 328.19812012 C-143.70129828 320.3307027 -150.79316925 312.09837997 -157.26586914 302.93554688 C-158.20120103 301.61953511 -159.17820564 300.33328788 -160.1640625 299.0546875 C-161.51315997 297.18335876 -161.97214751 295.63097393 -162.375 293.375 C-163.035 293.375 -163.695 293.375 -164.375 293.375 C-176.06637842 270.55193682 -184.95017098 248.57018489 -189.61328125 223.2421875 C-190.15324101 219.59691048 -190.15324101 219.59691048 -191.375 217.375 C-191.51160605 214.45954421 -191.5873028 211.56933559 -191.61328125 208.65234375 C-191.6230751 207.76810226 -191.63286896 206.88386078 -191.64295959 205.9728241 C-191.81136901 186.77949499 -191.86687656 168.14794618 -187.375 149.375 C-187.16601074 148.47813477 -186.95702148 147.58126953 -186.74169922 146.65722656 C-181.96577179 126.78793747 -173.60868657 108.58658485 -163.26367188 91.03466797 C-162.22543477 89.20803588 -162.22543477 89.20803588 -161.375 86.375 C-160.0543441 85.02910864 -158.71922702 83.69734991 -157.375 82.375 C-156.15929711 80.72879208 -154.97357191 79.06018428 -153.8125 77.375 C-146.15270424 66.70802516 -136.70643571 57.56457267 -127.375 48.375 C-126.89417969 47.87226562 -126.41335937 47.36953125 -125.91796875 46.8515625 C-93.15898397 15.50245808 -44.48113167 -0.11754146 0 0 Z " fill="#CCCCCC" transform="translate(255.375,-0.375)"/>
<path d="M0 0 C0.69435276 -0.00155999 1.38870552 -0.00311998 2.10409927 -0.00472724 C4.44800137 -0.00873947 6.79183953 -0.00554676 9.13574219 -0.00241089 C10.80912311 -0.00376483 12.48250373 -0.00554472 14.15588379 -0.00772095 C18.71360499 -0.01229611 23.27130366 -0.01050538 27.82902527 -0.00734186 C32.5878404 -0.00481869 37.34665354 -0.00715568 42.10546875 -0.00872803 C50.09863635 -0.01054985 58.09179473 -0.00814309 66.08496094 -0.00338745 C75.34000004 0.00205519 84.59501712 0.00029254 93.85005569 -0.00521386 C101.78123794 -0.00974463 109.71241353 -0.01039571 117.64359665 -0.00777519 C122.38711661 -0.00621222 127.1306262 -0.00601919 131.87414551 -0.00931168 C136.33262671 -0.01218987 140.79107939 -0.01021565 145.2495575 -0.00441742 C146.89072116 -0.00308954 148.5318872 -0.0034844 150.17304993 -0.00568008 C152.40381105 -0.00839052 154.63447926 -0.0050118 156.86523438 0 C158.74236115 0.00056554 158.74236115 0.00056554 160.65740967 0.0011425 C163.43261719 0.12698364 163.43261719 0.12698364 164.43261719 1.12698364 C166.20469109 19.97230802 159.80610354 40.99677132 148.12255859 55.78518677 C134.74400457 71.80817825 116.5840383 84.01530898 95.43261719 86.12698364 C68.00086214 87.73502778 41.61045486 86.55355842 19.95214844 67.52542114 C2.67788682 51.08139536 -6.5490986 32.13579477 -7.71582031 8.06448364 C-7.78184627 3.41625635 -7.78184627 3.41625635 -7.56738281 1.12698364 C-5.69267621 -0.74772295 -2.4957698 0.00075192 0 0 Z " fill="#CDCDCD" transform="translate(177.5673828125,425.8730163574219)"/>
<path d="M0 0 C0.86625 0.2784375 0.86625 0.2784375 1.75 0.5625 C3.97214494 1.16952281 3.97214494 1.16952281 6 0.4375 C8.63415768 -0.13872199 9.69347591 0.73621701 12 2 C10.58957044 2.84384675 9.17135868 3.67469496 7.75 4.5 C6.56664062 5.19609375 6.56664062 5.19609375 5.359375 5.90625 C3 7 3 7 -1 7 C-1 6.01 -1 5.02 -1 4 C-0.01 4 0.98 4 2 4 C1.34 2.68 0.68 1.36 0 0 Z " fill="#D3D3D3" transform="translate(259,185)"/>
<path d="M0 0 C1.9375 0.5625 1.9375 0.5625 4 2 C4.74439973 5.4118321 5 8.51394686 5 12 C5.33 12.66 5.66 13.32 6 14 C5.34 14 4.68 14 4 14 C3.67 14.99 3.34 15.98 3 17 C2.49622232 14.73000175 1.99709981 12.45896997 1.5 10.1875 C1.08234375 8.29064453 1.08234375 8.29064453 0.65625 6.35546875 C0 3 0 3 0 0 Z " fill="#D6D6D6" transform="translate(66,222)"/>
<path d="M0 0 C1.125 1.625 1.125 1.625 2 4 C1.125 7.25 1.125 7.25 0 10 C-1.98 10.33 -3.96 10.66 -6 11 C-4.54955729 6.89041233 -2.48889248 3.56741255 0 0 Z " fill="#D3D3D3" transform="translate(102,76)"/>
<path d="M0 0 C-0.33 1.32 -0.66 2.64 -1 4 C-1.99 4 -2.98 4 -4 4 C-4.33 4.66 -4.66 5.32 -5 6 C-6.9375 5.6875 -6.9375 5.6875 -9 5 C-9.33 4.01 -9.66 3.02 -10 2 C-8.71211992 1.46987262 -7.41953322 0.9511671 -6.125 0.4375 C-5.40570313 0.14746094 -4.68640625 -0.14257812 -3.9453125 -0.44140625 C-2 -1 -2 -1 0 0 Z " fill="#D4D4D4" transform="translate(200,9)"/>
<path d="M0 0 C0.33 0.66 0.66 1.32 1 2 C1.66 2 2.32 2 3 2 C1.49087042 6.98012761 -1.55661849 10.24259942 -5 14 C-5.33 12.68 -5.66 11.36 -6 10 C-5.34 10 -4.68 10 -4 10 C-3.71125 9.278125 -3.4225 8.55625 -3.125 7.8125 C-2.08333333 5.20833333 -1.04166667 2.60416667 0 0 Z " fill="#D7D7D7" transform="translate(326,473)"/>
<path d="M0 0 C0.99 0.99 1.98 1.98 3 3 C2.01 4.485 2.01 4.485 1 6 C0.83286431 8.62531524 0.83286431 8.62531524 1 11 C-1.475 10.01 -1.475 10.01 -4 9 C-2.94124926 5.59687262 -1.99097846 2.98646769 0 0 Z " fill="#D3D3D3" transform="translate(84,106)"/>
<path d="M0 0 C3.67268615 0.54410165 6.74104373 2.29645468 10 4 C6.1496895 6.56687367 4.41430237 5.83288724 0 5 C-0.5625 3.0625 -0.5625 3.0625 -1 1 C-0.67 0.67 -0.34 0.34 0 0 Z " fill="#D2D2D2" transform="translate(218,223)"/>
<path d="M0 0 C0.99 0 1.98 0 3 0 C3 3.3 3 6.6 3 10 C1.68 9.67 0.36 9.34 -1 9 C-0.67 6.03 -0.34 3.06 0 0 Z " fill="#DCDCDC" transform="translate(339,427)"/>
<path d="M0 0 C2 3 2 3 3 6 C2.4225 5.814375 1.845 5.62875 1.25 5.4375 C-1.20692525 4.95976454 -2.64397534 5.24270636 -5 6 C-5 4.68 -5 3.36 -5 2 C-3.35 1.34 -1.7 0.68 0 0 Z " fill="#D2D2D2" transform="translate(430,111)"/>
<path d="M0 0 C-1 3 -1 3 -3.0625 4.1875 C-3.701875 4.455625 -4.34125 4.72375 -5 5 C-5.66 4.34 -6.32 3.68 -7 3 C-9.57061311 2.35232207 -9.57061311 2.35232207 -12 2 C-12 1.67 -12 1.34 -12 1 C-7.93631321 0.22596442 -4.13574827 -0.0984702 0 0 Z " fill="#D8D8D8" transform="translate(235,1)"/>
<path d="M0 0 C0.66 0 1.32 0 2 0 C1.8125 1.8125 1.8125 1.8125 1 4 C-1.5625 5.75 -1.5625 5.75 -4 7 C-4.66 5.35 -5.32 3.7 -6 2 C-4 1 -4 1 -1 1 C-0.67 0.67 -0.34 0.34 0 0 Z " fill="#D2D2D2" transform="translate(314,489)"/>
<path d="M0 0 C1.65 1.65 3.3 3.3 5 5 C2.94766315 7.2477975 1.99332739 8.0022242 -1 9 C-0.67 6.03 -0.34 3.06 0 0 Z " fill="#D6D6D6" transform="translate(67,154)"/>
<path d="M0 0 C2.64 0.33 5.28 0.66 8 1 C7.34 2.65 6.68 4.3 6 6 C3.37812506 4.95125002 2.20628639 4.35068687 0.75 1.875 C0.5025 1.25625 0.255 0.6375 0 0 Z " fill="#D2D2D2" transform="translate(184,477)"/>
<path d="M0 0 C0.66 0.33 1.32 0.66 2 1 C1.01 2.98 0.02 4.96 -1 7 C-2.32 6.67 -3.64 6.34 -5 6 C-4.1875 3.5625 -4.1875 3.5625 -3 1 C-2.01 0.67 -1.02 0.34 0 0 Z " fill="#D2D2D2" transform="translate(350,377)"/>
<path d="M0 0 C1.32 0.33 2.64 0.66 4 1 C4.66 3.64 5.32 6.28 6 9 C4 7.625 4 7.625 2 6 C2 5.34 2 4.68 2 4 C1.34 4 0.68 4 0 4 C0 2.68 0 1.36 0 0 Z " fill="#D3D3D3" transform="translate(432,122)"/>
<path d="M0 0 C2.475 0.99 2.475 0.99 5 2 C5 2.99 5 3.98 5 5 C3.02 5.33 1.04 5.66 -1 6 C-1.33 4.68 -1.66 3.36 -2 2 C-1.34 2 -0.68 2 0 2 C0 1.34 0 0.68 0 0 Z " fill="#D3D3D3" transform="translate(347,23)"/>
<path d="M0 0 C1.32 0 2.64 0 4 0 C4.66 1.65 5.32 3.3 6 5 C5.01 5.66 4.02 6.32 3 7 C0 2.25 0 2.25 0 0 Z " fill="#D6D6D6" transform="translate(152,365)"/>
<path d="M0 0 C0.99 0 1.98 0 3 0 C3 1.32 3 2.64 3 4 C3.66 4 4.32 4 5 4 C5 3.34 5 2.68 5 2 C6.32 2.33 7.64 2.66 9 3 C8.01 3 7.02 3 6 3 C6 3.66 6 4.32 6 5 C0.25 4.25 0.25 4.25 -2 2 C-1.34 1.34 -0.68 0.68 0 0 Z " fill="#D6D6D6" transform="translate(248,187)"/>
<path d="M0 0 C-1 3 -1 3 -3.0625 4.1875 C-3.701875 4.455625 -4.34125 4.72375 -5 5 C-5.33 3.35 -5.66 1.7 -6 0 C-3.50907189 -1.24546405 -2.58919267 -0.7767578 0 0 Z " fill="#D4D4D4" transform="translate(79,251)"/>
<path d="M0 0 C0.66 0.33 1.32 0.66 2 1 C1.34 2.32 0.68 3.64 0 5 C-0.66 5 -1.32 5 -2 5 C-2.33 5.66 -2.66 6.32 -3 7 C-3.99 5.68 -4.98 4.36 -6 3 C-4.03533587 1.93224776 -2.03144641 0.93446535 0 0 Z " fill="#D8D8D8" transform="translate(177,16)"/>
<path d="M0 0 C1.32 0.99 2.64 1.98 4 3 C3.01 3.33 2.02 3.66 1 4 C0.34 4.66 -0.32 5.32 -1 6 C-1.99 6 -2.98 6 -4 6 C-2.84826645 3.53199953 -1.95216435 1.95216435 0 0 Z " fill="#D3D3D3" transform="translate(372,39)"/>
<path d="M0 0 C0 0.66 0 1.32 0 2 C0.99 2.33 1.98 2.66 3 3 C1.02 3.99 1.02 3.99 -1 5 C-2.32 4.01 -3.64 3.02 -5 2 C-2 0 -2 0 0 0 Z " fill="#D2D2D2" transform="translate(165,23)"/>
<path d="M0 0 C1.9375 0.3125 1.9375 0.3125 4 1 C4.33 1.99 4.66 2.98 5 4 C3.02 4 1.04 4 -1 4 C-0.67 2.68 -0.34 1.36 0 0 Z " fill="#D2D2D2" transform="translate(234,507)"/>
<path d="M0 0 C0.66 0 1.32 0 2 0 C2 0.99 2 1.98 2 3 C2.66 3.33 3.32 3.66 4 4 C3.01 5.32 2.02 6.64 1 8 C-1.125 3.375 -1.125 3.375 0 0 Z " fill="#D8D8D8" transform="translate(426,271)"/>
<path d="M0 0 C1.32 0 2.64 0 4 0 C4.33 1.65 4.66 3.3 5 5 C4.01 5.33 3.02 5.66 2 6 C1.34 4.02 0.68 2.04 0 0 Z " fill="#D5D5D5" transform="translate(80,269)"/>
<path d="M0 0 C1.32 0.33 2.64 0.66 4 1 C4 2.32 4 3.64 4 5 C3.01 4.67 2.02 4.34 1 4 C0.3125 1.9375 0.3125 1.9375 0 0 Z " fill="#D7D7D7" transform="translate(87,283)"/>
<path d="M0 0 C2.31 0.33 4.62 0.66 7 1 C5.515 2.485 5.515 2.485 4 4 C3.01 3.67 2.02 3.34 1 3 C0.67 2.01 0.34 1.02 0 0 Z " fill="#D5D5D5" transform="translate(218,3)"/>
<path d="" fill="#121212" transform="translate(0,0)"/>
<path d="" fill="#121212" transform="translate(0,0)"/>
<path d="" fill="#121212" transform="translate(0,0)"/>
<path d="" fill="#121212" transform="translate(0,0)"/>
<path d="" fill="#121212" transform="translate(0,0)"/>
<path d="" fill="#121212" transform="translate(0,0)"/>
<path d="" fill="#121212" transform="translate(0,0)"/>
<path d="" fill="#121212" transform="translate(0,0)"/>
<path d="" fill="#121212" transform="translate(0,0)"/>
<path d="" fill="#121212" transform="translate(0,0)"/>
<path d="" fill="#141414" transform="translate(0,0)"/>
<path d="" fill="#121212" transform="translate(0,0)"/>
<path d="" fill="#121212" transform="translate(0,0)"/>
<path d="" fill="#121212" transform="translate(0,0)"/>
<path d="" fill="#121212" transform="translate(0,0)"/>
<path d="" fill="#121212" transform="translate(0,0)"/>
<path d="" fill="#141414" transform="translate(0,0)"/>
<path d="" fill="#121212" transform="translate(0,0)"/>
<path d="" fill="#121212" transform="translate(0,0)"/>
<path d="" fill="#121212" transform="translate(0,0)"/>
<path d="" fill="#121212" transform="translate(0,0)"/>
<path d="" fill="#1A1A1A" transform="translate(0,0)"/>
<path d="" fill="#1A1A1A" transform="translate(0,0)"/>
<path d="" fill="#121212" transform="translate(0,0)"/>
<path d="" fill="#141414" transform="translate(0,0)"/>
<path d="" fill="#121212" transform="translate(0,0)"/>
<path d="" fill="#121212" transform="translate(0,0)"/>
<path d="" fill="#121212" transform="translate(0,0)"/>
<path d="" fill="#141414" transform="translate(0,0)"/>
<path d="" fill="#121212" transform="translate(0,0)"/>
<path d="" fill="#121212" transform="translate(0,0)"/>
<path d="" fill="#121212" transform="translate(0,0)"/>
<path d="" fill="#121212" transform="translate(0,0)"/>
<path d="" fill="#141414" transform="translate(0,0)"/>
<path d="" fill="#141414" transform="translate(0,0)"/>
<path d="" fill="#121212" transform="translate(0,0)"/>
<path d="" fill="#121212" transform="translate(0,0)"/>
<path d="" fill="#121212" transform="translate(0,0)"/>
</svg>
